<svg width="30" height="30" viewBox="0 0 30 30" fill="none" xmlns="http://www.w3.org/2000/svg">
<g id="mingcute:appstore-fill" clip-path="url(#clip0_12_5026)">
<g id="Group">
<path id="Vector" fill-rule="evenodd" clip-rule="evenodd" d="M15 2.5C21.9037 2.5 27.5 8.09625 27.5 15C27.5 21.9037 21.9037 27.5 15 27.5C8.09625 27.5 2.5 21.9037 2.5 15C2.5 8.09625 8.09625 2.5 15 2.5ZM15.625 16.25H7.875C7.54348 16.25 7.22554 16.3817 6.99112 16.6161C6.7567 16.8505 6.625 17.1685 6.625 17.5C6.625 17.8315 6.7567 18.1495 6.99112 18.3839C7.22554 18.6183 7.54348 18.75 7.875 18.75H8.5175L8.15875 19.3888C8.07848 19.5321 8.02722 19.6898 8.0079 19.8529C7.98858 20.016 8.00158 20.1813 8.04615 20.3394C8.09072 20.4975 8.166 20.6453 8.26767 20.7743C8.36935 20.9033 8.49544 21.011 8.63875 21.0912C8.78205 21.1715 8.93977 21.2228 9.10288 21.2421C9.266 21.2614 9.43132 21.2484 9.58941 21.2038C9.7475 21.1593 9.89527 21.084 10.0243 20.9823C10.1533 20.8806 10.261 20.7546 10.3412 20.6112L11.3825 18.75H15.625C15.9565 18.75 16.2745 18.6183 16.5089 18.3839C16.7433 18.1495 16.875 17.8315 16.875 17.5C16.875 17.1685 16.7433 16.8505 16.5089 16.6161C16.2745 16.3817 15.9565 16.25 15.625 16.25ZM17.9912 12.515C17.8368 12.2342 17.5804 12.0234 17.275 11.9262C16.9696 11.829 16.6386 11.8529 16.3503 11.9928C16.0619 12.1327 15.8383 12.378 15.7257 12.678C15.6131 12.9781 15.62 13.3099 15.745 13.605L15.81 13.7362L19.66 20.6112C19.8159 20.8892 20.0721 21.0971 20.3763 21.1925C20.6804 21.2878 21.0094 21.2634 21.2962 21.1242C21.5829 20.985 21.8056 20.7415 21.9187 20.4436C22.0319 20.1456 22.027 19.8157 21.905 19.5212L21.84 19.3888L21.4825 18.7513H22.125C22.4455 18.7538 22.7548 18.6331 22.9889 18.4141C23.223 18.1951 23.364 17.8945 23.3827 17.5745C23.4015 17.2545 23.2966 16.9395 23.0898 16.6946C22.8829 16.4498 22.5899 16.2937 22.2712 16.2587L22.125 16.25H20.0825L17.9912 12.515ZM14.8413 6.89C14.6868 6.60918 14.4304 6.39841 14.125 6.30122C13.8196 6.20404 13.4886 6.22786 13.2002 6.36777C12.9119 6.50769 12.6883 6.753 12.5757 7.05303C12.4631 7.35307 12.47 7.68491 12.595 7.98L12.6587 8.11125L13.5675 9.7325L11.3088 13.765C11.1516 14.0434 11.1071 14.3715 11.1844 14.6817C11.2617 14.992 11.455 15.2608 11.7244 15.4329C11.9939 15.605 12.319 15.6673 12.633 15.607C12.947 15.5467 13.226 15.3684 13.4125 15.1087L13.4913 14.9862L17.3413 8.11125C17.5005 7.83273 17.5466 7.50363 17.47 7.19208C17.3933 6.88053 17.1998 6.61037 16.9295 6.43755C16.6592 6.26472 16.3327 6.20246 16.0178 6.26365C15.7028 6.32483 15.4234 6.50479 15.2375 6.76625L15.16 6.88875L15 7.175L14.8413 6.89Z" fill="#212020"/>
</g>
</g>
<defs>
<clipPath id="clip0_12_5026">
<rect width="30" height="30" fill="white"/>
</clipPath>
</defs>
</svg>
