<svg width="40" height="40" viewBox="0 0 40 40" fill="none" xmlns="http://www.w3.org/2000/svg">
<rect x="39" y="39" width="38" height="38" rx="19" transform="rotate(-180 39 39)" stroke="#0C0B0B" stroke-width="2"/>
<path d="M19.773 14.6667L19.773 13.4596L18.9195 14.3131L15.5091 17.7235L15.8626 18.0771L15.5091 17.7235C15.4205 17.8121 15.277 17.8121 15.1884 17.7235C15.0999 17.635 15.0999 17.4914 15.1884 17.4029L19.8394 12.7519C19.928 12.6633 20.0715 12.6633 20.1601 12.7519L20.5136 12.3983L20.1601 12.7519L24.8109 17.4026C24.8554 17.4472 24.8774 17.5044 24.8774 17.5631C24.8774 17.6217 24.8554 17.679 24.811 17.7234C24.7225 17.812 24.579 17.812 24.4904 17.7234L24.4904 17.7234L21.08 14.3131L20.2265 13.4596L20.2265 14.6667L20.2265 27.0879C20.2265 27.2131 20.1249 27.3146 19.9997 27.3146C19.8746 27.3146 19.773 27.2131 19.773 27.0879L19.773 14.6667Z" fill="#0C0B0B" stroke="#0C0B0B"/>
</svg>
