<svg width="351" height="86" viewBox="0 0 351 86" fill="none" xmlns="http://www.w3.org/2000/svg">
<path d="M351 69C351 78.3888 343.389 86 334 86H193.5H115.541C109.241 86 103.458 82.5162 100.513 76.9471L98.9234 73.9417C92.4157 61.6355 74.6847 61.94 68.6033 74.4623L67.6493 76.4265C64.8055 82.2824 58.8672 86 52.3573 86H17C7.61118 86 0 78.3888 0 69V17C0 7.61116 7.61118 0 17 0H52.4307C58.9025 0 64.8129 3.67464 67.6763 9.47852L68.6476 11.4474C74.7629 23.8426 92.3281 24.1469 98.869 11.9711L100.489 8.95484C103.452 3.44028 109.205 0 115.465 0H193.5H334C343.389 0 351 7.61116 351 17V69Z" fill="#007AFF"/>
</svg>
