<svg width="55" height="55" viewBox="0 0 55 55" fill="none" xmlns="http://www.w3.org/2000/svg">
<g id="mage:playstore">
<path id="Vector" d="M8.33478 7.86958L28.3639 27.5115L8.48373 47.3344C8.15849 46.9108 7.90601 46.4361 7.73665 45.9296C7.64906 45.3562 7.64906 44.7728 7.73665 44.1994V10.466C7.67707 9.56083 7.88561 8.65562 8.33248 7.86958M36.9921 18.9452L30.4539 25.4215L10.6631 5.95833C11.3048 5.73604 11.9923 5.67417 12.6637 5.77958C13.7179 6.06833 14.7239 6.51292 15.6475 7.09271L33.5592 17.0042C34.7233 17.6298 35.8577 18.2875 36.9921 18.9452ZM30.4562 29.6313L36.9623 36.0204L32.246 38.6467L17.8567 46.6446C16.665 47.3023 15.4687 47.9302 14.3046 48.6475C13.8064 48.9576 13.2478 49.1579 12.6661 49.235C12.0844 49.312 11.4929 49.2641 10.9312 49.0944L30.4562 29.6313ZM47.3229 27.5115C47.3396 28.3128 47.1371 29.1035 46.7373 29.7981C46.3375 30.4928 45.7555 31.0651 45.0542 31.4531L39.6779 34.4369L32.6035 27.5115L39.7077 20.4669C41.5296 21.4821 43.3217 22.4973 45.1114 23.4529C45.8252 23.8519 46.4115 24.4448 46.8025 25.163C47.1934 25.8812 47.3753 26.6954 47.3229 27.5115Z" fill="white"/>
</g>
</svg>
