<svg width="30" height="30" viewBox="0 0 30 30" fill="none" xmlns="http://www.w3.org/2000/svg">
<g id="mage:playstore">
<path id="Vector" d="M4.54623 4.29229L15.4712 15.006L4.62748 25.8185C4.45007 25.5875 4.31235 25.3286 4.21998 25.0523C4.1722 24.7395 4.1722 24.4213 4.21998 24.1085V5.70854C4.18748 5.21479 4.30123 4.72104 4.54498 4.29229M20.1775 10.3335L16.6112 13.866L5.81622 3.24979C6.16622 3.12854 6.54123 3.09479 6.90747 3.15229C7.48248 3.30979 8.03123 3.55229 8.53498 3.86854L18.305 9.27479C18.94 9.61604 19.5587 9.97479 20.1775 10.3335ZM16.6125 16.1623L20.1612 19.6473L17.5887 21.0798L9.73997 25.4423C9.08997 25.801 8.43748 26.1435 7.80248 26.5348C7.53076 26.704 7.22608 26.8132 6.90878 26.8552C6.59148 26.8973 6.26886 26.8711 5.96248 26.7785L16.6125 16.1623ZM25.8125 15.006C25.8216 15.4431 25.7111 15.8744 25.493 16.2533C25.275 16.6322 24.9575 16.9444 24.575 17.156L21.6425 18.7835L17.7837 15.006L21.6587 11.1635C22.6525 11.7173 23.63 12.271 24.6062 12.7923C24.9956 13.0099 25.3154 13.3333 25.5286 13.7251C25.7418 14.1168 25.8411 14.5609 25.8125 15.006Z" fill="white"/>
</g>
</svg>
