<svg width="82" height="82" viewBox="0 0 82 82" fill="none" xmlns="http://www.w3.org/2000/svg">
<g id="ri:double-quotes-l">
<path id="Vector" d="M15.5506 59.18C12.0557 55.4422 10.1793 51.2499 10.1793 44.4542C10.1793 32.4958 18.5162 21.7778 30.6397 16.4785L33.6698 21.1867C22.3538 27.3503 20.1415 35.3488 19.2593 40.3918C21.0814 39.4419 23.4667 39.1105 25.8046 39.3292C31.9257 39.8998 36.7507 44.9598 36.7507 51.2499C36.7507 54.4215 35.4995 57.4631 33.2724 59.7058C31.0452 61.9484 28.0245 63.2083 24.8749 63.2083C23.133 63.1929 21.4116 62.8289 19.8109 62.1373C18.2101 61.4458 16.7619 60.4405 15.5506 59.18ZM49.4816 59.18C45.9867 55.4422 44.1104 51.2499 44.1104 44.4542C44.1104 32.4958 52.4472 21.7778 64.5708 16.4785L67.6008 21.1867C56.2848 27.3503 54.0725 35.3488 53.1903 40.3918C55.0124 39.4419 57.3978 39.1105 59.7356 39.3292C65.8568 39.8998 70.6818 44.9598 70.6818 51.2499C70.6818 54.4215 69.4305 57.4631 67.2034 59.7058C64.9762 61.9484 61.9556 63.2083 58.8059 63.2083C57.0641 63.1929 55.3427 62.8289 53.7419 62.1373C52.1411 61.4458 50.6929 60.4405 49.4816 59.18Z" fill="white"/>
</g>
</svg>
