<svg width="185" height="34" viewBox="0 0 185 34" fill="none" xmlns="http://www.w3.org/2000/svg">
<path d="M18.488 0.819999H26.816V20.212C26.816 22.82 26.312 25.084 25.304 27.004C24.296 28.924 22.824 30.42 20.888 31.492C18.952 32.548 16.6 33.076 13.832 33.076C11.064 33.076 8.704 32.548 6.752 31.492C4.8 30.42 3.312 28.924 2.288 27.004C1.28 25.084 0.776 22.82 0.776 20.212V0.819999H9.128V19.756C9.128 21.052 9.304 22.124 9.656 22.972C10.024 23.82 10.56 24.46 11.264 24.892C11.968 25.308 12.824 25.516 13.832 25.516C14.824 25.516 15.664 25.308 16.352 24.892C17.04 24.46 17.568 23.82 17.936 22.972C18.304 22.124 18.488 21.052 18.488 19.756V0.819999Z" fill="#007AFF"/>
<path d="M31.3798 0.819999H45.0118C46.8998 0.819999 48.5718 1.22 50.0278 2.02C51.4838 2.804 52.6278 3.932 53.4598 5.404C54.3078 6.876 54.7318 8.628 54.7318 10.66C54.7318 12.676 54.3878 14.316 53.6998 15.58C53.0118 16.844 52.1878 17.788 51.2278 18.412C50.2678 19.036 49.3878 19.428 48.5878 19.588L56.2198 32.5H46.8358L40.1638 20.236H39.7558V32.5H31.3798V0.819999ZM39.7558 14.524H42.0118C43.0518 14.524 43.9958 14.276 44.8438 13.78C45.7078 13.284 46.1398 12.332 46.1398 10.924C46.1398 9.532 45.7158 8.588 44.8678 8.092C44.0358 7.596 43.1078 7.348 42.0838 7.348H39.7558V14.524ZM68.7703 21.604C68.7703 22.98 69.0103 24.084 69.4903 24.916C69.9703 25.732 70.8263 26.14 72.0583 26.14C73.3063 26.14 74.1703 25.732 74.6503 24.916C75.1303 24.084 75.3703 22.98 75.3703 21.604V12.796H83.7223V22.468C83.7223 24.644 83.2663 26.532 82.3543 28.132C81.4423 29.716 80.1143 30.94 78.3703 31.804C76.6423 32.652 74.5383 33.076 72.0583 33.076C69.5943 33.076 67.4983 32.652 65.7703 31.804C64.0423 30.94 62.7143 29.716 61.7863 28.132C60.8743 26.532 60.4183 24.644 60.4183 22.468V12.796H68.7703V21.604ZM102.203 12.22C103.627 12.22 105.011 12.5 106.355 13.06C107.699 13.62 108.803 14.516 109.667 15.748C110.547 16.98 110.987 18.588 110.987 20.572V32.5H102.467V21.94C102.467 20.74 102.179 19.82 101.603 19.18C101.027 18.524 100.259 18.196 99.2994 18.196C98.6754 18.196 98.0914 18.356 97.5474 18.676C97.0034 18.996 96.5634 19.444 96.2274 20.02C95.9074 20.596 95.7474 21.268 95.7474 22.036V32.5H87.2514V12.796H95.7474V15.46C95.9554 14.932 96.3634 14.428 96.9714 13.948C97.5794 13.452 98.3394 13.044 99.2514 12.724C100.163 12.388 101.147 12.22 102.203 12.22ZM129.297 12.22C130.721 12.22 132.105 12.5 133.449 13.06C134.793 13.62 135.897 14.516 136.761 15.748C137.641 16.98 138.081 18.588 138.081 20.572V32.5H129.561V21.94C129.561 20.74 129.273 19.82 128.697 19.18C128.121 18.524 127.353 18.196 126.393 18.196C125.769 18.196 125.185 18.356 124.641 18.676C124.097 18.996 123.657 19.444 123.321 20.02C123.001 20.596 122.841 21.268 122.841 22.036V32.5H114.345V12.796H122.841V15.46C123.049 14.932 123.457 14.428 124.065 13.948C124.673 13.452 125.433 13.044 126.345 12.724C127.257 12.388 128.241 12.22 129.297 12.22ZM148.927 24.364C148.991 24.892 149.199 25.356 149.551 25.756C149.919 26.14 150.399 26.444 150.991 26.668C151.599 26.876 152.311 26.98 153.127 26.98C153.927 26.98 154.679 26.924 155.383 26.812C156.087 26.684 156.711 26.516 157.255 26.308C157.815 26.1 158.255 25.868 158.575 25.612L161.719 30.892C161.367 31.196 160.839 31.516 160.135 31.852C159.431 32.188 158.463 32.476 157.231 32.716C156.015 32.956 154.455 33.076 152.551 33.076C150.343 33.076 148.359 32.684 146.599 31.9C144.839 31.116 143.447 29.94 142.423 28.372C141.399 26.788 140.887 24.812 140.887 22.444C140.887 20.524 141.319 18.796 142.183 17.26C143.047 15.708 144.295 14.484 145.927 13.588C147.559 12.676 149.535 12.22 151.855 12.22C154.079 12.22 156.007 12.612 157.639 13.396C159.271 14.164 160.527 15.332 161.407 16.9C162.287 18.468 162.727 20.452 162.727 22.852C162.727 22.98 162.719 23.236 162.703 23.62C162.703 24.004 162.687 24.252 162.655 24.364H148.927ZM154.735 20.524C154.719 19.996 154.599 19.524 154.375 19.108C154.167 18.692 153.863 18.364 153.463 18.124C153.063 17.884 152.575 17.764 151.999 17.764C151.439 17.764 150.943 17.876 150.511 18.1C150.079 18.324 149.743 18.644 149.503 19.06C149.263 19.46 149.127 19.948 149.095 20.524H154.735ZM173.855 32.5H165.359V12.796H173.855V15.7H173.735C173.895 15.348 174.215 14.9 174.695 14.356C175.191 13.812 175.879 13.324 176.759 12.892C177.655 12.444 178.767 12.22 180.095 12.22C180.991 12.22 181.839 12.364 182.639 12.652C183.439 12.94 184.023 13.22 184.391 13.492L181.127 20.38C180.919 20.076 180.527 19.772 179.951 19.468C179.375 19.148 178.663 18.988 177.815 18.988C176.855 18.988 176.079 19.204 175.487 19.636C174.911 20.052 174.495 20.572 174.239 21.196C173.983 21.82 173.855 22.42 173.855 22.996V32.5Z" fill="#212020"/>
</svg>
