<svg width="111" height="47" viewBox="0 0 111 47" fill="none" xmlns="http://www.w3.org/2000/svg">
<path d="M100.269 15.8958C99.2575 15.8958 98.3335 15.6355 97.4975 15.1148C96.6688 14.5942 96.0051 13.8938 95.5065 13.0138C95.0151 12.1338 94.7695 11.1622 94.7695 10.0988C94.7695 9.29952 94.9125 8.55152 95.1985 7.85485C95.4845 7.15085 95.8768 6.53485 96.3755 6.00685C96.8815 5.47151 97.4681 5.05352 98.1355 4.75285C98.8028 4.45218 99.5141 4.30185 100.269 4.30185C101.142 4.30185 101.938 4.48885 102.656 4.86285C103.382 5.23685 103.995 5.74652 104.493 6.39185C104.999 7.03718 105.359 7.76685 105.571 8.58085C105.791 9.39485 105.828 10.2418 105.681 11.1218H98.0475C98.1428 11.4445 98.2895 11.7378 98.4875 12.0018C98.6928 12.2585 98.9421 12.4638 99.2355 12.6178C99.5361 12.7718 99.8808 12.8525 100.269 12.8598C100.651 12.8672 101.003 12.7792 101.325 12.5958C101.648 12.4125 101.923 12.1668 102.15 11.8588L105.252 12.5738C104.805 13.5492 104.138 14.3485 103.25 14.9718C102.363 15.5878 101.369 15.8958 100.269 15.8958ZM97.9375 8.87785H102.612C102.517 8.51118 102.356 8.18118 102.128 7.88785C101.901 7.59452 101.626 7.36351 101.303 7.19485C100.988 7.02618 100.643 6.94185 100.269 6.94185C99.9028 6.94185 99.5581 7.02618 99.2355 7.19485C98.9201 7.36351 98.6488 7.59452 98.4215 7.88785C98.2015 8.17385 98.0401 8.50385 97.9375 8.87785Z" fill="white"/>
<path d="M76.0934 15.6098V4.60985H79.1294V5.42385C79.5034 5.07185 79.9361 4.79685 80.4274 4.59885C80.9188 4.40085 81.4394 4.30185 81.9894 4.30185C82.7374 4.30185 83.4231 4.47418 84.0464 4.81885C84.6771 5.16352 85.1831 5.62185 85.5644 6.19385C85.9531 5.62185 86.4591 5.16352 87.0824 4.81885C87.7058 4.47418 88.3878 4.30185 89.1284 4.30185C89.9278 4.30185 90.6501 4.49618 91.2954 4.88485C91.9481 5.27352 92.4688 5.79418 92.8574 6.44685C93.2461 7.09218 93.4404 7.81452 93.4404 8.61385V15.6098H90.4044V9.44985C90.4044 9.06852 90.3091 8.72385 90.1184 8.41585C89.9351 8.10052 89.6894 7.85118 89.3814 7.66785C89.0734 7.47718 88.7288 7.38185 88.3474 7.38185C87.9661 7.38185 87.6178 7.47351 87.3024 7.65685C86.9944 7.84018 86.7451 8.08952 86.5544 8.40485C86.3711 8.71285 86.2794 9.06118 86.2794 9.44985V15.6098H83.2434V9.44985C83.2434 9.06118 83.1518 8.71285 82.9684 8.40485C82.7851 8.08952 82.5358 7.84018 82.2204 7.65685C81.9124 7.47351 81.5678 7.38185 81.1864 7.38185C80.8124 7.38185 80.4678 7.47718 80.1524 7.66785C79.8444 7.85118 79.5951 8.10052 79.4044 8.41585C79.2211 8.72385 79.1294 9.06852 79.1294 9.44985V15.6098H76.0934Z" fill="white"/>
<path d="M70.8472 4.60985H73.8832V15.6098H70.8362L70.6932 14.4658C70.4072 14.8912 70.0406 15.2358 69.5932 15.4998C69.1459 15.7638 68.6216 15.8958 68.0202 15.8958C67.1989 15.8958 66.4326 15.7418 65.7212 15.4338C65.0099 15.1258 64.3829 14.7005 63.8402 14.1578C63.2976 13.6152 62.8722 12.9882 62.5642 12.2768C62.2636 11.5582 62.1132 10.7882 62.1132 9.96685C62.1132 9.18218 62.2562 8.44885 62.5422 7.76685C62.8282 7.08485 63.2316 6.48352 63.7522 5.96285C64.2729 5.44218 64.8706 5.03518 65.5452 4.74185C66.2272 4.44852 66.9606 4.30185 67.7452 4.30185C68.4199 4.30185 69.0249 4.44485 69.5602 4.73085C70.1029 5.01685 70.5759 5.37985 70.9792 5.81985L70.8472 4.60985ZM67.9432 12.9808C68.4419 12.9808 68.8929 12.8525 69.2962 12.5958C69.6996 12.3392 70.0186 11.9945 70.2532 11.5618C70.4879 11.1218 70.6052 10.6378 70.6052 10.1098C70.6052 9.57452 70.4879 9.09052 70.2532 8.65785C70.0186 8.22518 69.6996 7.88052 69.2962 7.62385C68.8929 7.36718 68.4419 7.23885 67.9432 7.23885C67.4372 7.23885 66.9789 7.36718 66.5682 7.62385C66.1576 7.88052 65.8312 8.22885 65.5892 8.66885C65.3472 9.10152 65.2262 9.58185 65.2262 10.1098C65.2262 10.6378 65.3472 11.1218 65.5892 11.5618C65.8386 11.9945 66.1686 12.3392 66.5792 12.5958C66.9899 12.8525 67.4446 12.9808 67.9432 12.9808Z" fill="white"/>
<path d="M60.789 8.61385V15.6098H57.753V9.44985C57.753 9.06118 57.6577 8.71285 57.467 8.40485C57.2837 8.08952 57.0343 7.84018 56.719 7.65685C56.411 7.47351 56.0663 7.38185 55.685 7.38185C55.3037 7.38185 54.9553 7.47351 54.64 7.65685C54.3247 7.84018 54.0753 8.08952 53.892 8.40485C53.7087 8.71285 53.617 9.06118 53.617 9.44985V15.6098H50.581L50.57 4.60985H53.606L53.617 5.42385C53.9837 5.07185 54.4127 4.79685 54.904 4.59885C55.4027 4.40085 55.927 4.30185 56.477 4.30185C57.2763 4.30185 57.9987 4.49618 58.644 4.88485C59.2967 5.27352 59.8173 5.79418 60.206 6.44685C60.5947 7.09218 60.789 7.81452 60.789 8.61385Z" fill="white"/>
<path d="M36.6376 15.6098L36.6266 4.60985H39.6626L39.6736 5.42385C40.0403 5.07185 40.4693 4.79685 40.9606 4.59885C41.4593 4.40085 41.9836 4.30185 42.5336 4.30185C42.937 4.30185 43.3403 4.36052 43.7436 4.47785L42.5446 7.54685C42.2806 7.43685 42.013 7.38185 41.7416 7.38185C41.3603 7.38185 41.012 7.47351 40.6966 7.65685C40.3813 7.84018 40.132 8.08952 39.9487 8.40485C39.7653 8.71285 39.6736 9.06118 39.6736 9.44985V15.6098H36.6376Z" fill="white"/>
<path d="M29.457 15.8958C28.445 15.8958 27.521 15.6355 26.685 15.1148C25.8563 14.5942 25.1926 13.8938 24.694 13.0138C24.2026 12.1338 23.957 11.1622 23.957 10.0988C23.957 9.29952 24.1 8.55152 24.386 7.85485C24.672 7.15085 25.0643 6.53485 25.563 6.00685C26.069 5.47151 26.6556 5.05352 27.323 4.75285C27.9903 4.45218 28.7016 4.30185 29.457 4.30185C30.3296 4.30185 31.1253 4.48885 31.844 4.86285C32.57 5.23685 33.1823 5.74652 33.681 6.39185C34.187 7.03718 34.5463 7.76685 34.759 8.58085C34.979 9.39485 35.0156 10.2418 34.869 11.1218H27.235C27.3303 11.4445 27.477 11.7378 27.675 12.0018C27.8803 12.2585 28.1296 12.4638 28.423 12.6178C28.7236 12.7718 29.0683 12.8525 29.457 12.8598C29.8383 12.8672 30.1903 12.7792 30.513 12.5958C30.8356 12.4125 31.1106 12.1668 31.338 11.8588L34.44 12.5738C33.9926 13.5492 33.3253 14.3485 32.438 14.9718C31.5506 15.5878 30.557 15.8958 29.457 15.8958ZM27.125 8.87785H31.8C31.7046 8.51118 31.5433 8.18118 31.316 7.88785C31.0886 7.59452 30.8136 7.36351 30.491 7.19485C30.1756 7.02618 29.831 6.94185 29.457 6.94185C29.0903 6.94185 28.7456 7.02618 28.423 7.19485C28.1076 7.36351 27.8363 7.59452 27.609 7.88785C27.389 8.17385 27.2276 8.50385 27.125 8.87785Z" fill="white"/>
<path d="M18.4507 15.8079C17.8861 15.7639 17.3434 15.6465 16.8227 15.4559C16.3021 15.2579 15.8364 14.9939 15.4257 14.6639C15.0224 14.3265 14.7071 13.9232 14.4797 13.4539L17.0317 12.3539C17.1124 12.4712 17.2334 12.5995 17.3947 12.7389C17.5561 12.8709 17.7504 12.9882 17.9777 13.0909C18.2124 13.1935 18.4837 13.2449 18.7917 13.2449C19.0191 13.2449 19.2391 13.2192 19.4517 13.1679C19.6644 13.1092 19.8367 13.0175 19.9687 12.8929C20.1007 12.7609 20.1667 12.5885 20.1667 12.3759C20.1667 12.1412 20.0824 11.9615 19.9137 11.8369C19.7451 11.7122 19.5397 11.6205 19.2977 11.5619C19.0631 11.4959 18.8357 11.4409 18.6157 11.3969C17.9411 11.2795 17.3031 11.0705 16.7017 10.7699C16.1077 10.4619 15.6237 10.0659 15.2497 9.58187C14.8757 9.09787 14.6887 8.51854 14.6887 7.84387C14.6887 7.1032 14.8831 6.4652 15.2717 5.92987C15.6604 5.3872 16.1664 4.9692 16.7897 4.67587C17.4131 4.38254 18.0877 4.23587 18.8137 4.23587C19.6717 4.23587 20.4674 4.41554 21.2007 4.77487C21.9341 5.1342 22.5244 5.6402 22.9717 6.29287L20.5737 7.71187C20.4784 7.57254 20.3537 7.44054 20.1997 7.31587C20.0531 7.18387 19.8807 7.07387 19.6827 6.98587C19.4921 6.89054 19.2867 6.83554 19.0667 6.82087C18.7807 6.79887 18.5204 6.8172 18.2857 6.87587C18.0511 6.9272 17.8641 7.0262 17.7247 7.17287C17.5927 7.31954 17.5267 7.51754 17.5267 7.76687C17.5267 8.00887 17.6331 8.18854 17.8457 8.30587C18.0584 8.41587 18.3041 8.5002 18.5827 8.55887C18.8614 8.6102 19.1071 8.67254 19.3197 8.74587C19.9577 8.9512 20.5554 9.2152 21.1127 9.53787C21.6774 9.8532 22.1321 10.2419 22.4767 10.7039C22.8214 11.1659 22.9827 11.7085 22.9607 12.3319C22.9607 13.0579 22.7444 13.6959 22.3117 14.2459C21.8791 14.7885 21.3181 15.2029 20.6287 15.4889C19.9467 15.7675 19.2207 15.8739 18.4507 15.8079Z" fill="white"/>
<path d="M6.41521 15.8959C5.18321 15.8959 4.09788 15.5952 3.15921 14.9939C2.22788 14.3925 1.49821 13.5859 0.970209 12.5739C0.449542 11.5545 0.189209 10.4252 0.189209 9.18587V0.209869H3.22521V9.18587C3.22521 9.8532 3.34988 10.4655 3.59921 11.0229C3.84854 11.5802 4.21154 12.0275 4.68821 12.3649C5.16488 12.6949 5.74054 12.8599 6.41521 12.8599C7.09721 12.8599 7.67288 12.6949 8.14221 12.3649C8.61888 12.0349 8.97821 11.5912 9.22021 11.0339C9.46221 10.4765 9.58321 9.86054 9.58321 9.18587V0.209869H12.6192V9.18587C12.6192 10.1172 12.4689 10.9899 12.1682 11.8039C11.8749 12.6105 11.4532 13.3219 10.9032 13.9379C10.3532 14.5539 9.69688 15.0342 8.93421 15.3789C8.17888 15.7235 7.33921 15.8959 6.41521 15.8959Z" fill="white"/>
<path d="M9.18921 28.6099L11.2098 34.8287H17.7487L12.4587 38.6722L14.4793 44.891L9.18921 41.0476L3.89914 44.891L5.91977 38.6722L0.629701 34.8287H7.16858L9.18921 28.6099Z" fill="#FFA800"/>
<path d="M32.1892 28.6099L34.2098 34.8287H40.7487L35.4587 38.6722L37.4793 44.891L32.1892 41.0476L26.8991 44.891L28.9198 38.6722L23.6297 34.8287H30.1686L32.1892 28.6099Z" fill="#FFA800"/>
<path d="M55.1892 28.6099L57.2098 34.8287H63.7487L58.4587 38.6722L60.4793 44.891L55.1892 41.0476L49.8991 44.891L51.9198 38.6722L46.6297 34.8287H53.1686L55.1892 28.6099Z" fill="#FFA800"/>
<path d="M78.1892 28.6099L80.2098 34.8287H86.7487L81.4587 38.6722L83.4793 44.891L78.1892 41.0476L72.8991 44.891L74.9198 38.6722L69.6297 34.8287H76.1686L78.1892 28.6099Z" fill="#FFA800"/>
<path d="M101.189 28.6099L103.21 34.8287H109.749L104.459 38.6722L106.479 44.891L101.189 41.0476L95.8991 44.891L97.9198 38.6722L92.6297 34.8287H99.1686L101.189 28.6099Z" fill="#E8E8E8"/>
<path d="M101.189 28.6099L101.189 35.6099V36.1099L101.189 38.6722L101.189 40.6099L101.189 41.0476L95.8992 44.891L97.9198 38.6722L92.6298 34.8287H99.1686L101.189 28.6099Z" fill="#FFA800"/>
</svg>
