<svg width="177" height="56" viewBox="0 0 177 56" fill="none" xmlns="http://www.w3.org/2000/svg">
<path id="Rectangle 14" d="M177 43C177 50.1797 171.18 56 164 56H97.5769H59.2196C55.518 56 52.1836 53.7624 50.7808 50.3369L50.6243 49.9547C47.5393 42.4216 36.8176 42.5768 33.952 50.1961C32.6388 53.6878 29.299 56 25.5685 56H13C5.8203 56 0 50.1797 0 43V13C0 5.8203 5.8203 0 13 0H25.6043C29.3169 0 32.6445 2.29084 33.9695 5.75893C36.8575 13.3177 47.4947 13.4735 50.6028 6.00259L50.7629 5.61771C52.178 2.21624 55.5004 0 59.1845 0H97.5769H164C171.18 0 177 5.8203 177 13V43Z" fill="white"/>
</svg>
