<svg width="55" height="55" viewBox="0 0 55 55" fill="none" xmlns="http://www.w3.org/2000/svg">
<g clip-path="url(#clip0_5_160)">
<path fill-rule="evenodd" clip-rule="evenodd" d="M27.5 4.58333C40.1569 4.58333 50.4167 14.8431 50.4167 27.5C50.4167 40.1569 40.1569 50.4167 27.5 50.4167C14.8431 50.4167 4.58334 40.1569 4.58334 27.5C4.58334 14.8431 14.8431 4.58333 27.5 4.58333ZM28.6458 29.7917H14.4375C13.8297 29.7917 13.2468 30.0331 12.8171 30.4629C12.3873 30.8927 12.1458 31.4755 12.1458 32.0833C12.1458 32.6911 12.3873 33.274 12.8171 33.7038C13.2468 34.1336 13.8297 34.375 14.4375 34.375H15.6154L14.9577 35.546C14.8106 35.8088 14.7166 36.0979 14.6812 36.3969C14.6457 36.696 14.6696 36.9991 14.7513 37.2889C14.833 37.5788 14.971 37.8497 15.1574 38.0862C15.3438 38.3227 15.575 38.5201 15.8377 38.6673C16.1004 38.8145 16.3896 38.9084 16.6886 38.9438C16.9877 38.9793 17.2908 38.9554 17.5806 38.8737C17.8704 38.792 18.1413 38.654 18.3778 38.4676C18.6143 38.2812 18.8118 38.05 18.959 37.7873L20.8679 34.375H28.6458C29.2536 34.375 29.8365 34.1336 30.2663 33.7038C30.6961 33.274 30.9375 32.6911 30.9375 32.0833C30.9375 31.4755 30.6961 30.8927 30.2663 30.4629C29.8365 30.0331 29.2536 29.7917 28.6458 29.7917ZM32.984 22.9442C32.7008 22.4293 32.2308 22.0429 31.6709 21.8647C31.111 21.6866 30.5041 21.7302 29.9755 21.9867C29.4469 22.2433 29.037 22.693 28.8305 23.2431C28.624 23.7931 28.6366 24.4015 28.8658 24.9425L28.985 25.1831L36.0433 37.7873C36.3292 38.2969 36.7989 38.6781 37.3565 38.8529C37.9141 39.0277 38.5173 38.9829 39.043 38.7277C39.5686 38.4725 39.9769 38.0261 40.1844 37.4799C40.3919 36.9336 40.3828 36.3288 40.1592 35.789L40.04 35.546L39.3846 34.3773H40.5625C41.1502 34.3819 41.7172 34.1606 42.1463 33.7591C42.5754 33.3576 42.8339 32.8066 42.8684 32.2199C42.9028 31.6333 42.7105 31.0558 42.3313 30.6068C41.952 30.1579 41.4148 29.8718 40.8306 29.8077L40.5625 29.7917H36.8179L32.984 22.9442ZM27.209 12.6317C26.9258 12.1168 26.4558 11.7304 25.8959 11.5522C25.336 11.3741 24.7291 11.4177 24.2005 11.6743C23.6719 11.9308 23.262 12.3805 23.0555 12.9306C22.849 13.4806 22.8616 14.089 23.0908 14.63L23.2077 14.8706L24.8738 17.8429L20.7327 25.2358C20.4446 25.7463 20.363 26.3477 20.5048 26.9165C20.6465 27.4853 21.0008 27.9781 21.4948 28.2936C21.9888 28.6092 22.5849 28.7234 23.1605 28.6129C23.7362 28.5023 24.2476 28.1754 24.5896 27.6994L24.734 27.4748L31.7923 14.8706C32.0843 14.36 32.1688 13.7567 32.0283 13.1855C31.8877 12.6143 31.533 12.119 31.0374 11.8022C30.5418 11.4853 29.9434 11.3712 29.3659 11.4834C28.7885 11.5955 28.2763 11.9254 27.9354 12.4048L27.7933 12.6294L27.5 13.1542L27.209 12.6317Z" fill="white"/>
</g>
<defs>
<clipPath id="clip0_5_160">
<rect width="55" height="55" fill="white"/>
</clipPath>
</defs>
</svg>
