<svg width="22" height="22" viewBox="0 0 22 22" fill="none" xmlns="http://www.w3.org/2000/svg">
<path d="M11.0007 20.1667C5.9379 20.1667 1.83398 16.0627 1.83398 11C1.83398 5.93725 5.9379 1.83333 11.0007 1.83333C16.0634 1.83333 20.1673 5.93725 20.1673 11C20.1673 16.0627 16.0634 20.1667 11.0007 20.1667ZM11.0007 18.3333C12.9456 18.3333 14.8108 17.5607 16.1861 16.1854C17.5614 14.8102 18.334 12.9449 18.334 11C18.334 9.05507 17.5614 7.18981 16.1861 5.81455C14.8108 4.43928 12.9456 3.66666 11.0007 3.66666C9.05573 3.66666 7.19047 4.43928 5.8152 5.81455C4.43993 7.18981 3.66732 9.05507 3.66732 11C3.66732 12.9449 4.43993 14.8102 5.8152 16.1854C7.19047 17.5607 9.05573 18.3333 11.0007 18.3333ZM10.084 6.41666H11.9173V8.25H10.084V6.41666ZM10.084 10.0833H11.9173V15.5833H10.084V10.0833Z" fill="#333333"/>
</svg>
