<svg width="25" height="24" viewBox="0 0 25 24" fill="none" xmlns="http://www.w3.org/2000/svg">
<path fill-rule="evenodd" clip-rule="evenodd" d="M18.2025 3.49713H6.20251C4.54566 3.49713 3.20251 4.84028 3.20251 6.49713V14.4971C3.20251 16.154 4.54566 17.4971 6.20251 17.4971H8.20251C8.85163 17.4971 9.48323 17.7077 10.0025 18.0971L11.4025 19.1471C12.4692 19.9471 13.9358 19.9471 15.0025 19.1471L16.4025 18.0971C16.9218 17.7077 17.5534 17.4971 18.2025 17.4971C19.8594 17.4971 21.2025 16.154 21.2025 14.4971V6.49713C21.2025 4.84028 19.8594 3.49713 18.2025 3.49713ZM6.20251 8.49713C6.20251 7.94485 6.65023 7.49713 7.20251 7.49713H12.2025C12.7548 7.49713 13.2025 7.94485 13.2025 8.49713C13.2025 9.04942 12.7548 9.49713 12.2025 9.49713H7.20251C6.65023 9.49713 6.20251 9.04942 6.20251 8.49713ZM7.20251 11.4971C6.65023 11.4971 6.20251 11.9448 6.20251 12.4971C6.20251 13.0494 6.65023 13.4971 7.20251 13.4971H16.2025C16.7548 13.4971 17.2025 13.0494 17.2025 12.4971C17.2025 11.9448 16.7548 11.4971 16.2025 11.4971H7.20251Z" fill="white"/>
</svg>
