<svg width="28" height="28" viewBox="0 0 28 28" fill="none" xmlns="http://www.w3.org/2000/svg">
<path d="M12.2504 5.24999C12.2504 4.22891 11.8448 3.24965 11.1228 2.52763C10.4007 1.80562 9.42147 1.39999 8.40039 1.39999C7.37931 1.39999 6.40004 1.80562 5.67803 2.52763C4.95601 3.24965 4.55039 4.22891 4.55039 5.24999C4.55039 6.27108 4.95601 7.25034 5.67803 7.97236C6.40004 8.69437 7.37931 9.09999 8.40039 9.09999C9.42147 9.09999 10.4007 8.69437 11.1228 7.97236C11.8448 7.25034 12.2504 6.27108 12.2504 5.24999ZM5.95039 5.24999C5.95039 4.92826 6.01376 4.60967 6.13689 4.31242C6.26001 4.01517 6.44048 3.74509 6.66798 3.51758C6.89548 3.29008 7.16557 3.10961 7.46282 2.98649C7.76006 2.86337 8.07865 2.79999 8.40039 2.79999C8.72213 2.79999 9.04072 2.86337 9.33797 2.98649C9.63521 3.10961 9.9053 3.29008 10.1328 3.51758C10.3603 3.74509 10.5408 4.01517 10.6639 4.31242C10.787 4.60967 10.8504 4.92826 10.8504 5.24999C10.8504 5.89977 10.5923 6.52294 10.1328 6.98241C9.67334 7.44187 9.05017 7.69999 8.40039 7.69999C7.75061 7.69999 7.12744 7.44187 6.66798 6.98241C6.20852 6.52294 5.95039 5.89977 5.95039 5.24999ZM3.50039 10.5H9.35659C9.12699 10.934 8.95619 11.4044 8.85539 11.9H3.50039C3.31474 11.9 3.13669 11.9737 3.00542 12.105C2.87414 12.2363 2.80039 12.4143 2.80039 12.6V13.3C2.80039 15.064 4.33899 16.9596 7.13479 17.402C6.68399 17.71 6.30879 18.1202 6.04139 18.5976C3.08739 17.7982 1.40039 15.5218 1.40039 13.3V12.6C1.40039 12.043 1.62164 11.5089 2.01547 11.1151C2.40929 10.7212 2.94344 10.5 3.50039 10.5ZM11.031 10.5C11.7366 9.64599 12.8048 9.09999 14.0004 9.09999C14.8388 9.09853 15.6547 9.37139 16.3235 9.87695C16.9924 10.3825 17.4775 11.093 17.7048 11.9C17.9074 12.6203 17.896 13.384 17.6719 14.0979C17.4479 14.8118 17.0208 15.4451 16.4429 15.9204C15.865 16.3957 15.1613 16.6925 14.4175 16.7746C13.6738 16.8568 12.9223 16.7206 12.2546 16.3828C11.7405 16.1212 11.2918 15.7474 10.9416 15.289C10.5914 14.8307 10.3487 14.2995 10.2314 13.7348C10.1141 13.17 10.1251 12.5861 10.2638 12.0262C10.4024 11.4663 10.6637 10.9447 11.031 10.5ZM11.7884 11.9C11.6505 12.1908 11.5713 12.506 11.5552 12.8275C11.5391 13.149 11.5865 13.4705 11.6946 13.7736C11.9131 14.3859 12.3658 14.8863 12.9532 15.1648C13.5406 15.4433 14.2146 15.477 14.8268 15.2586C15.4391 15.0401 15.9395 14.5874 16.218 14C16.4965 13.4124 16.5301 12.7383 16.3115 12.1259C16.093 11.5135 15.6401 11.013 15.0525 10.7345C14.4649 10.456 13.7908 10.4224 13.1784 10.6409C12.566 10.8595 12.0655 11.3124 11.787 11.9M21.9594 18.5976C21.6933 18.1195 21.3188 17.7105 20.866 17.4034C23.6604 16.9596 25.2004 15.0626 25.2004 13.3V12.6C25.2004 12.4143 25.1266 12.2363 24.9954 12.105C24.8641 11.9737 24.686 11.9 24.5004 11.9H19.1454C19.047 11.4117 18.8786 10.9402 18.6456 10.5H24.5004C25.0573 10.5 25.5915 10.7212 25.9853 11.1151C26.3791 11.5089 26.6004 12.043 26.6004 12.6V13.3C26.6004 15.5218 24.912 17.7968 21.9594 18.5976ZM20.2822 18.7194C19.8996 18.3847 19.4087 18.2002 18.9004 18.2H9.10039C8.82441 18.1993 8.551 18.2531 8.29588 18.3583C8.04077 18.4636 7.80897 18.6183 7.61382 18.8134C7.41867 19.0086 7.26401 19.2404 7.15874 19.4955C7.05347 19.7506 6.99965 20.024 7.00039 20.3V21C7.00039 23.7594 9.60439 26.6 14.0004 26.6C18.3964 26.6 21.0004 23.7594 21.0004 21V20.3C21.0004 19.67 20.7232 19.1044 20.2822 18.718M8.40039 20.3C8.40039 20.1143 8.47414 19.9363 8.60542 19.805C8.73669 19.6737 8.91474 19.6 9.10039 19.6H18.9004C19.086 19.6 19.2641 19.6737 19.3954 19.805C19.5266 19.9363 19.6004 20.1143 19.6004 20.3V21C19.6004 23.0132 17.5956 25.2 14.0004 25.2C10.4052 25.2 8.40039 23.0132 8.40039 21V20.3ZM19.6004 1.39999C20.6215 1.39999 21.6007 1.80562 22.3228 2.52763C23.0448 3.24965 23.4504 4.22891 23.4504 5.24999C23.4504 6.27108 23.0448 7.25034 22.3228 7.97236C21.6007 8.69437 20.6215 9.09999 19.6004 9.09999C18.5793 9.09999 17.6 8.69437 16.878 7.97236C16.156 7.25034 15.7504 6.27108 15.7504 5.24999C15.7504 4.22891 16.156 3.24965 16.878 2.52763C17.6 1.80562 18.5793 1.39999 19.6004 1.39999ZM19.6004 2.79999C18.9506 2.79999 18.3274 3.05812 17.868 3.51758C17.4085 3.97705 17.1504 4.60021 17.1504 5.24999C17.1504 5.89977 17.4085 6.52294 17.868 6.98241C18.3274 7.44187 18.9506 7.69999 19.6004 7.69999C20.2502 7.69999 20.8733 7.44187 21.3328 6.98241C21.7923 6.52294 22.0504 5.89977 22.0504 5.24999C22.0504 4.60021 21.7923 3.97705 21.3328 3.51758C20.8733 3.05812 20.2502 2.79999 19.6004 2.79999Z" fill="black"/>
</svg>
