<svg width="55" height="55" viewBox="0 0 55 55" fill="none" xmlns="http://www.w3.org/2000/svg">
<rect width="55" height="55" fill="#D9D5D5"/>
<g clip-path="url(#clip0_0_1)">
<rect x="-75" y="-543" width="1440" height="7128" rx="40" fill="white"/>
<ellipse cx="340.022" cy="-112.978" rx="361.473" ry="136.361" transform="rotate(45 340.022 -112.978)" fill="#007AFF" fill-opacity="0.07"/>
<path d="M341 54C341 63.3888 333.389 71 324 71H183.5H105.541C99.241 71 93.4577 67.5162 90.5127 61.9471L88.9234 58.9417C82.4157 46.6355 64.6847 46.94 58.6033 59.4623L57.6493 61.4265C54.8055 67.2824 48.8672 71 42.3573 71H7C-2.38882 71 -10 63.3888 -10 54V2C-10 -7.38884 -2.38882 -15 7 -15H42.4307C48.9025 -15 54.8129 -11.3254 57.6763 -5.52148L58.6476 -3.55259C64.7629 8.84257 82.3281 9.14692 88.869 -3.02893L90.4894 -6.04516C93.4519 -11.5597 99.2053 -15 105.465 -15H183.5H324C333.389 -15 341 -7.38884 341 2V54Z" fill="#007AFF"/>
<path d="M8.33478 7.86958L28.3639 27.5115L8.48373 47.3344C8.15849 46.9108 7.90601 46.4361 7.73665 45.9296C7.64906 45.3562 7.64906 44.7728 7.73665 44.1994V10.466C7.67707 9.56083 7.88561 8.65562 8.33248 7.86958M36.9921 18.9452L30.4539 25.4215L10.6631 5.95833C11.3048 5.73604 11.9923 5.67417 12.6637 5.77958C13.7179 6.06833 14.7239 6.51292 15.6475 7.09271L33.5592 17.0042C34.7233 17.6298 35.8577 18.2875 36.9921 18.9452ZM30.4562 29.6313L36.9623 36.0204L32.246 38.6467L17.8567 46.6446C16.665 47.3023 15.4687 47.9302 14.3046 48.6475C13.8064 48.9576 13.2478 49.1579 12.6661 49.235C12.0844 49.312 11.4929 49.2641 10.9312 49.0944L30.4562 29.6313ZM47.3229 27.5115C47.3396 28.3128 47.1371 29.1035 46.7373 29.7981C46.3375 30.4928 45.7555 31.0651 45.0542 31.4531L39.6779 34.4369L32.6035 27.5115L39.7077 20.4669C41.5296 21.4821 43.3217 22.4973 45.1114 23.4529C45.8252 23.8519 46.4115 24.4448 46.8025 25.163C47.1934 25.8812 47.3753 26.6954 47.3229 27.5115Z" fill="white"/>
</g>
<defs>
<clipPath id="clip0_0_1">
<rect x="-75" y="-543" width="1440" height="7128" rx="40" fill="white"/>
</clipPath>
</defs>
</svg>
