<svg width="83" height="82" viewBox="0 0 83 82" fill="none" xmlns="http://www.w3.org/2000/svg">
<path d="M16.5256 59.18C13.0307 55.4422 11.1543 51.2499 11.1543 44.4542C11.1543 32.4958 19.4912 21.7778 31.6147 16.4785L34.6448 21.1867C23.3288 27.3503 21.1165 35.3488 20.2343 40.3918C22.0564 39.4419 24.4417 39.1105 26.7796 39.3292C32.9007 39.8998 37.7257 44.9598 37.7257 51.2499C37.7257 54.4215 36.4745 57.4631 34.2474 59.7058C32.0202 61.9484 28.9995 63.2083 25.8499 63.2083C24.108 63.1929 22.3866 62.8289 20.7859 62.1373C19.1851 61.4458 17.7369 60.4405 16.5256 59.18ZM50.4566 59.18C46.9618 55.4422 45.0854 51.2499 45.0854 44.4542C45.0854 32.4958 53.4222 21.7778 65.5458 16.4785L68.5758 21.1867C57.2598 27.3503 55.0475 35.3488 54.1653 40.3918C55.9874 39.4419 58.3728 39.1105 60.7106 39.3292C66.8318 39.8998 71.6568 44.9598 71.6568 51.2499C71.6568 54.4215 70.4056 57.4631 68.1784 59.7058C65.9512 61.9484 62.9306 63.2083 59.7809 63.2083C58.0391 63.1929 56.3177 62.8289 54.7169 62.1373C53.1161 61.4458 51.6679 60.4405 50.4566 59.18Z" fill="black" fill-opacity="0.19"/>
</svg>
