<svg width="82" height="82" viewBox="0 0 82 82" fill="none" xmlns="http://www.w3.org/2000/svg">
<path d="M65.8839 59.18C69.3788 55.4422 71.2552 51.2499 71.2552 44.4542C71.2552 32.4958 62.9183 21.7778 50.7948 16.4785L47.7647 21.1867C59.0807 27.3503 61.2931 35.3488 62.1753 40.3918C60.3532 39.4419 57.9678 39.1105 55.63 39.3292C49.5088 39.8998 44.6838 44.9598 44.6838 51.2499C44.6838 54.4215 45.935 57.4631 48.1622 59.7058C50.3893 61.9484 53.41 63.2083 56.5597 63.2083C58.3015 63.1929 60.0229 62.8289 61.6237 62.1373C63.2244 61.4458 64.6726 60.4405 65.8839 59.18ZM31.9529 59.18C35.4478 55.4422 37.3242 51.2499 37.3242 44.4542C37.3242 32.4958 28.9873 21.7778 16.8638 16.4785L13.8337 21.1867C25.1497 27.3503 27.362 35.3488 28.2442 40.3918C26.4221 39.4419 24.0368 39.1105 21.6989 39.3292C15.5778 39.8998 10.7528 44.9598 10.7528 51.2499C10.7528 54.4215 12.004 57.4631 14.2311 59.7058C16.4583 61.9484 19.479 63.2083 22.6286 63.2083C24.3705 63.1929 26.0919 62.8289 27.6926 62.1373C29.2934 61.4458 30.7416 60.4405 31.9529 59.18Z" fill="white"/>
</svg>
