<svg width="22" height="22" viewBox="0 0 22 22" fill="none" xmlns="http://www.w3.org/2000/svg">
<g id="heroicons:users">
<path id="Vector" d="M13.7509 17.534C14.5329 17.7608 15.343 17.8756 16.1572 17.875C17.4667 17.8781 18.7593 17.5795 19.9348 17.0023C19.9372 16.9498 19.9384 16.8969 19.9384 16.8438C19.9385 16.0351 19.6793 15.2478 19.199 14.5973C18.7187 13.9468 18.0425 13.4675 17.2697 13.2295C16.4969 12.9916 15.6682 13.0077 14.9052 13.2754C14.1422 13.5432 13.4851 14.0484 13.0304 14.7171M13.7509 17.534V17.5313C13.7509 16.511 13.4897 15.5513 13.0304 14.7171M13.7509 17.534V17.6312C11.9871 18.6944 9.96576 19.2543 7.90625 19.25C5.7695 19.25 3.77025 18.6587 2.06342 17.6312L2.0625 17.5313C2.0618 16.2337 2.49298 14.9728 3.28807 13.9473C4.08316 12.9219 5.19693 12.1902 6.45378 11.8677C7.71064 11.5452 9.03909 11.6502 10.2297 12.1661C11.4203 12.682 12.4062 13.5795 13.0304 14.7171M11.0009 5.84375C11.0009 6.66426 10.675 7.45117 10.0948 8.03136C9.51459 8.61155 8.72768 8.9375 7.90717 8.9375C7.08665 8.9375 6.29975 8.61155 5.71956 8.03136C5.13936 7.45117 4.81342 6.66426 4.81342 5.84375C4.81342 5.02324 5.13936 4.23633 5.71956 3.65614C6.29975 3.07595 7.08665 2.75 7.90717 2.75C8.72768 2.75 9.51459 3.07595 10.0948 3.65614C10.675 4.23633 11.0009 5.02324 11.0009 5.84375ZM18.5634 7.90625C18.5634 8.54443 18.3099 9.15647 17.8586 9.60773C17.4074 10.059 16.7953 10.3125 16.1572 10.3125C15.519 10.3125 14.907 10.059 14.4557 9.60773C14.0044 9.15647 13.7509 8.54443 13.7509 7.90625C13.7509 7.26807 14.0044 6.65603 14.4557 6.20477C14.907 5.75351 15.519 5.5 16.1572 5.5C16.7953 5.5 17.4074 5.75351 17.8586 6.20477C18.3099 6.65603 18.5634 7.26807 18.5634 7.90625Z" stroke="#333333" stroke-width="1.5" stroke-linecap="round" stroke-linejoin="round"/>
</g>
</svg>
