<svg width="13" height="19" viewBox="0 0 13 19" fill="none" xmlns="http://www.w3.org/2000/svg">
<path d="M6.8125 12.625C4.91406 12.625 3.4375 11.1484 3.4375 9.25V3.625C3.4375 1.76172 4.91406 0.25 6.8125 0.25C8.67578 0.25 10.1875 1.76172 10.1875 3.625V9.25C10.1875 11.1484 8.67578 12.625 6.8125 12.625ZM12.4375 7C12.7188 7 13 7.28125 13 7.5625V9.25C13 12.3789 10.6445 14.9805 7.65625 15.4023V16.5625H9.625C9.90625 16.5625 10.1875 16.8438 10.1875 17.125V17.6875C10.1875 18.0039 9.90625 18.25 9.625 18.25H4C3.68359 18.25 3.4375 18.0039 3.4375 17.6875V17.125C3.4375 16.8438 3.68359 16.5625 4 16.5625H5.96875V15.3672C2.83984 14.9453 0.625 12.1328 0.625 9.00391V7.5625C0.625 7.28125 0.871094 7 1.1875 7H1.75C2.03125 7 2.3125 7.28125 2.3125 7.5625V9.07422C2.3125 11.4297 4 13.5039 6.35547 13.75C9.02734 13.9961 11.3125 11.8867 11.3125 9.25V7.5625C11.3125 7.28125 11.5586 7 11.875 7H12.4375Z" fill="#9D9D9D"/>
</svg>
